<svg width="50" height="50" viewBox="0 0 50 50" fill="none" xmlns="http://www.w3.org/2000/svg">
<path d="M25.7144 37.1429C28.7455 37.1429 31.6524 35.9388 33.7956 33.7955C35.9389 31.6523 37.143 28.7453 37.143 25.7143C37.143 22.6833 35.9389 19.7764 33.7956 17.6331C31.6524 15.4898 28.7455 14.2857 25.7144 14.2857C22.6834 14.2857 19.7765 15.4898 17.6332 17.6331C15.4899 19.7764 14.2859 22.6833 14.2859 25.7143C14.2859 28.7453 15.4899 31.6523 17.6332 33.7955C19.7765 35.9388 22.6834 37.1429 25.7144 37.1429ZM25.7144 11.4286C27.5905 11.4286 29.4481 11.7981 31.1813 12.516C32.9146 13.2339 34.4894 14.2862 35.816 15.6128C37.1425 16.9393 38.1948 18.5142 38.9127 20.2474C39.6306 21.9806 40.0001 23.8383 40.0001 25.7143C40.0001 29.5031 38.495 33.1367 35.816 35.8158C33.1369 38.4949 29.5032 40 25.7144 40C17.8144 40 11.4287 33.5714 11.4287 25.7143C11.4287 21.9255 12.9338 18.2919 15.6129 15.6128C18.292 12.9337 21.9256 11.4286 25.7144 11.4286ZM26.4287 18.5714V26.0714L32.8573 29.8857L31.7859 31.6429L24.2859 27.1429V18.5714H26.4287Z" fill="#F5D00B"/>
<rect x="0.614286" y="0.614286" width="48.7714" height="48.7714" rx="5.00204" stroke="white" stroke-opacity="0.2" stroke-width="1.22857"/>
</svg>
